<svg xmlns="http://www.w3.org/2000/svg" viewBox="0 0 640 330" font-family="'Segoe UI', Arial, sans-serif">
  <defs>
    <filter id="shF2" x="-2%" y="-2%" width="104%" height="104%">
      <feDropShadow dx="1" dy="2" stdDeviation="3" flood-opacity="0.15"/>
    </filter>
  </defs>

  <rect width="640" height="330" rx="12" fill="#fff" stroke="#334155" stroke-width="2"/>

  <!-- Header -->
  <rect x="0" y="0" width="640" height="50" rx="12" fill="#dc2626"/>
  <rect x="0" y="30" width="640" height="20" fill="#dc2626"/>
  <text x="320" y="34" text-anchor="middle" font-size="18" font-weight="800" fill="#fff">⚠ ALERTAS POR TIPO DE CÂNCER</text>

  <!-- MAMA -->
  <rect x="20" y="62" width="295" height="115" rx="8" fill="#fdf2f8" stroke="#ec4899" stroke-width="2" filter="url(#shF2)"/>
  <rect x="20" y="62" width="295" height="30" rx="8" fill="#ec4899"/>
  <rect x="20" y="84" width="295" height="8" fill="#ec4899"/>
  <text x="167" y="84" text-anchor="middle" font-size="12" font-weight="700" fill="#fff">🎀 MAMA (todos os tipos)</text>
  <text x="35" y="112" font-size="11" font-weight="600" fill="#9d174d">→ NAC OBRIGATÓRIO em cetose</text>
  <text x="42" y="128" font-size="10" fill="#374151">(Protocolo BACH1)</text>
  <text x="35" y="150" font-size="12" font-weight="700" fill="#be185d">600-1200mg 2x/dia</text>
  <text x="35" y="168" font-size="9" fill="#6b7280">Protege contra metástase induzida pela cetose</text>

  <!-- COLORRETAL -->
  <rect x="325" y="62" width="295" height="115" rx="8" fill="#fef2f2" stroke="#dc2626" stroke-width="2" filter="url(#shF2)"/>
  <rect x="325" y="62" width="295" height="30" rx="8" fill="#92400e"/>
  <rect x="325" y="84" width="295" height="8" fill="#92400e"/>
  <text x="472" y="84" text-anchor="middle" font-size="12" font-weight="700" fill="#fff">COLORRETAL</text>
  <text x="340" y="112" font-size="11" font-weight="600" fill="#991b1b">→ ZERO Colina/Carnitina</text>
  <text x="340" y="132" font-size="11" font-weight="600" fill="#166534">→ Butirato 4g/dia</text>
  <text x="340" y="152" font-size="11" font-weight="600" fill="#166534">→ Aspirina 100mg</text>
  <text x="340" y="168" font-size="9" fill="#6b7280">Grupo Vermelho — TMAO pode promover tumor</text>

  <!-- PRÓSTATA -->
  <rect x="20" y="190" width="295" height="115" rx="8" fill="#eff6ff" stroke="#3b82f6" stroke-width="2" filter="url(#shF2)"/>
  <rect x="20" y="190" width="295" height="30" rx="8" fill="#1e40af"/>
  <rect x="20" y="212" width="295" height="8" fill="#1e40af"/>
  <text x="167" y="212" text-anchor="middle" font-size="12" font-weight="700" fill="#fff">PRÓSTATA</text>
  <text x="35" y="240" font-size="11" font-weight="600" fill="#991b1b">→ ZERO Colina/Carnitina</text>
  <text x="35" y="260" font-size="11" font-weight="600" fill="#166534">→ Licopeno 30-50mg</text>
  <text x="35" y="280" font-size="11" font-weight="600" fill="#166534">→ Citrato de Potássio</text>
  <text x="35" y="296" font-size="9" fill="#6b7280">Grupo Vermelho — monitorar potássio sérico</text>

  <!-- FÍGADO -->
  <rect x="325" y="190" width="295" height="115" rx="8" fill="#fff7ed" stroke="#f97316" stroke-width="2" filter="url(#shF2)"/>
  <rect x="325" y="190" width="295" height="30" rx="8" fill="#c2410c"/>
  <rect x="325" y="212" width="295" height="8" fill="#c2410c"/>
  <text x="472" y="212" text-anchor="middle" font-size="12" font-weight="700" fill="#fff">FÍGADO (Hepatocarcinoma)</text>
  <text x="340" y="240" font-size="11" font-weight="600" fill="#991b1b">→ ZERO Colina/Carnitina</text>
  <text x="340" y="260" font-size="11" font-weight="600" fill="#166534">→ Silimarina 420mg</text>
  <text x="340" y="280" font-size="11" font-weight="600" fill="#166534">→ NAC 1200mg</text>
  <text x="340" y="296" font-size="9" fill="#6b7280">Grupo Vermelho — proteção hepática essencial</text>
</svg>
