<svg xmlns="http://www.w3.org/2000/svg" viewBox="0 0 520 380" font-family="'Segoe UI', Arial, sans-serif">
  <defs>
    <filter id="shF3" x="-2%" y="-2%" width="104%" height="104%">
      <feDropShadow dx="1" dy="2" stdDeviation="3" flood-opacity="0.15"/>
    </filter>
  </defs>

  <rect width="520" height="380" rx="12" fill="#fff" stroke="#334155" stroke-width="2"/>

  <!-- Header -->
  <rect x="0" y="0" width="520" height="48" rx="12" fill="#4f46e5"/>
  <rect x="0" y="30" width="520" height="18" fill="#4f46e5"/>
  <text x="260" y="33" text-anchor="middle" font-size="17" font-weight="800" fill="#fff">✓ CHECKLIST DIÁRIO P8</text>

  <!-- MANHÃ -->
  <rect x="20" y="60" width="480" height="90" rx="8" fill="#fef9c3" stroke="#eab308" stroke-width="1.5" filter="url(#shF3)"/>
  <text x="35" y="80" font-size="13" font-weight="800" fill="#92400e">MANHÃ</text>
  <rect x="35" y="90" width="14" height="14" rx="3" fill="#fff" stroke="#94a3b8" stroke-width="1.5"/>
  <text x="58" y="102" font-size="11" fill="#374151">Medir glicose e cetonas → Calcular GKI</text>
  <rect x="35" y="110" width="14" height="14" rx="3" fill="#fff" stroke="#94a3b8" stroke-width="1.5"/>
  <text x="58" y="122" font-size="11" fill="#374151">Ativação vagal (5 min)</text>
  <rect x="260" y="110" width="14" height="14" rx="3" fill="#fff" stroke="#94a3b8" stroke-width="1.5"/>
  <text x="283" y="122" font-size="11" fill="#374151">Exposição solar (20 min)</text>
  <rect x="35" y="130" width="14" height="14" rx="3" fill="#fff" stroke="#94a3b8" stroke-width="1.5"/>
  <text x="58" y="142" font-size="11" fill="#374151">Suplementos matinais</text>

  <!-- DIA -->
  <rect x="20" y="160" width="480" height="90" rx="8" fill="#dcfce7" stroke="#16a34a" stroke-width="1.5" filter="url(#shF3)"/>
  <text x="35" y="180" font-size="13" font-weight="800" fill="#166534">DIA</text>
  <rect x="35" y="190" width="14" height="14" rx="3" fill="#fff" stroke="#94a3b8" stroke-width="1.5"/>
  <text x="58" y="202" font-size="11" fill="#374151">Refeições cetogênicas (&lt; 20-30g carbs)</text>
  <rect x="35" y="210" width="14" height="14" rx="3" fill="#fff" stroke="#94a3b8" stroke-width="1.5"/>
  <text x="58" y="222" font-size="11" fill="#374151">Proteína adequada (1.5-2g/kg)</text>
  <rect x="35" y="230" width="14" height="14" rx="3" fill="#fff" stroke="#94a3b8" stroke-width="1.5"/>
  <text x="58" y="242" font-size="11" fill="#374151">Hidratação + eletrólitos</text>
  <rect x="260" y="230" width="14" height="14" rx="3" fill="#fff" stroke="#94a3b8" stroke-width="1.5"/>
  <text x="283" y="242" font-size="11" fill="#374151">Exercício (se possível)</text>

  <!-- NOITE -->
  <rect x="20" y="260" width="480" height="105" rx="8" fill="#ede9fe" stroke="#6366f1" stroke-width="1.5" filter="url(#shF3)"/>
  <text x="35" y="280" font-size="13" font-weight="800" fill="#3730a3">NOITE</text>
  <rect x="35" y="290" width="14" height="14" rx="3" fill="#fff" stroke="#94a3b8" stroke-width="1.5"/>
  <text x="58" y="302" font-size="11" fill="#374151">Última refeição até 19h</text>
  <rect x="260" y="290" width="14" height="14" rx="3" fill="#fff" stroke="#94a3b8" stroke-width="1.5"/>
  <text x="283" y="302" font-size="11" fill="#374151">Ativação vagal (8 min)</text>
  <rect x="35" y="310" width="14" height="14" rx="3" fill="#fff" stroke="#94a3b8" stroke-width="1.5"/>
  <text x="58" y="322" font-size="11" fill="#374151">Suplementos noturnos</text>
  <rect x="260" y="310" width="14" height="14" rx="3" fill="#fff" stroke="#94a3b8" stroke-width="1.5"/>
  <text x="283" y="322" font-size="11" fill="#374151">Ambiente escuro, telas off</text>
  <rect x="35" y="330" width="14" height="14" rx="3" fill="#fff" stroke="#94a3b8" stroke-width="1.5"/>
  <text x="58" y="342" font-size="11" fill="#374151">Dormir até 22h</text>
  <rect x="260" y="330" width="14" height="14" rx="3" fill="#fff" stroke="#94a3b8" stroke-width="1.5"/>
  <text x="283" y="342" font-size="11" fill="#374151">Melatonina 3-5mg</text>
</svg>
