<svg xmlns="http://www.w3.org/2000/svg" viewBox="0 0 700 80" font-family="'Segoe UI', Arial, sans-serif">
  <rect width="700" height="80" rx="8" fill="#fef2f2" stroke="#fecaca" stroke-width="1"/>

  <text x="350" y="20" text-anchor="middle" font-size="11" font-weight="700" fill="#991b1b">Via BACH1 — Mecanismo de Metástase Induzida por Cetose</text>

  <!-- Chain -->
  <rect x="20" y="35" width="95" height="30" rx="6" fill="#3b82f6"/>
  <text x="67" y="55" text-anchor="middle" font-size="10" font-weight="600" fill="#fff">Cetose</text>

  <line x1="115" y1="50" x2="135" y2="50" stroke="#94a3b8" stroke-width="1.5"/>
  <polygon points="137,50 130,46 130,54" fill="#94a3b8"/>

  <rect x="140" y="35" width="130" height="30" rx="6" fill="#f59e0b"/>
  <text x="205" y="55" text-anchor="middle" font-size="10" font-weight="600" fill="#fff">Privação Glicose</text>

  <line x1="270" y1="50" x2="290" y2="50" stroke="#94a3b8" stroke-width="1.5"/>
  <polygon points="292,50 285,46 285,54" fill="#94a3b8"/>

  <rect x="295" y="35" width="75" height="30" rx="6" fill="#ef4444"/>
  <text x="332" y="55" text-anchor="middle" font-size="10" font-weight="600" fill="#fff">ATF4 ↑</text>

  <line x1="370" y1="50" x2="390" y2="50" stroke="#94a3b8" stroke-width="1.5"/>
  <polygon points="392,50 385,46 385,54" fill="#94a3b8"/>

  <rect x="395" y="35" width="80" height="30" rx="6" fill="#dc2626"/>
  <text x="435" y="55" text-anchor="middle" font-size="10" font-weight="700" fill="#fff">BACH1 ↑</text>

  <line x1="475" y1="50" x2="495" y2="50" stroke="#94a3b8" stroke-width="1.5"/>
  <polygon points="497,50 490,46 490,54" fill="#94a3b8"/>

  <rect x="500" y="35" width="180" height="30" rx="6" fill="#7f1d1d"/>
  <text x="590" y="55" text-anchor="middle" font-size="10" font-weight="700" fill="#fff">Genes Pró-Metastáticos</text>
</svg>
